<?xml version="1.0" standalone="no"?>
<!DOCTYPE svg PUBLIC "-//W3C//DTD SVG 20010904//EN"
 "http://www.w3.org/TR/2001/REC-SVG-20010904/DTD/svg10.dtd">
<svg version="1.0" xmlns="http://www.w3.org/2000/svg"
 width="700.000000pt" height="700.000000pt" viewBox="0 0 700.000000 700.000000"
 preserveAspectRatio="xMidYMid meet">
<metadata>
Created by potrace 1.11, written by Peter Selinger 2001-2013
</metadata>
<g transform="translate(0.000000,700.000000) scale(0.100000,-0.100000)"
fill="#000000" stroke="none">
<path d="M3278 6996 c-1 -2 -41 -6 -88 -10 -47 -4 -96 -8 -110 -11 -14 -2 -46
-7 -73 -9 -41 -5 -87 -12 -187 -31 -285 -53 -632 -170 -890 -300 -243 -122
-543 -323 -730 -489 -157 -140 -397 -397 -495 -531 -17 -22 -32 -42 -35 -45
-34 -32 -230 -352 -295 -480 -195 -389 -330 -863 -363 -1280 -9 -122 -9 -513
1 -610 4 -41 10 -100 13 -130 11 -128 69 -408 115 -565 146 -489 382 -921 714
-1305 40 -47 301 -307 345 -345 365 -311 725 -517 1175 -672 96 -33 367 -106
436 -117 19 -3 57 -10 84 -15 28 -5 77 -13 110 -16 33 -4 69 -9 79 -11 139
-26 654 -25 846 2 148 21 172 24 255 40 546 104 1079 355 1535 722 92 74 358
332 430 417 371 436 618 916 750 1460 21 88 41 180 45 205 9 58 14 90 19 116
2 11 7 54 11 95 4 41 9 88 12 104 8 56 10 539 3 605 -5 36 -11 90 -14 120 -78
679 -349 1314 -785 1835 -400 479 -922 844 -1506 1052 -159 57 -378 117 -505
138 -19 3 -42 8 -50 10 -8 2 -37 7 -65 11 -27 3 -59 8 -70 10 -10 2 -49 6 -85
10 -36 3 -76 8 -90 11 -27 5 -536 14 -542 9z m429 -595 c40 -1 44 -4 78 -57
116 -181 260 -450 349 -654 21 -47 47 -105 58 -130 65 -143 229 -643 215 -656
-3 -4 -930 -6 -1382 -4 l-70 0 -24 56 c-38 86 -94 167 -167 239 l-66 66 17 47
c58 155 151 356 280 612 36 70 140 248 212 362 l74 117 47 3 c42 3 272 2 379
-1z m-1275 -278 c-120 -241 -254 -549 -301 -695 -10 -29 -18 -38 -44 -43 -199
-42 -404 -213 -495 -415 l-28 -61 -298 0 c-164 0 -300 2 -303 4 -5 6 86 157
152 252 130 187 346 422 527 571 207 172 487 344 728 446 19 9 46 20 60 26 50
21 50 12 2 -85z m2210 51 c439 -187 860 -513 1151 -889 4 -5 19 -23 32 -40 52
-62 229 -334 222 -341 -3 -3 -386 -5 -903 -4 l-112 0 -16 68 c-66 268 -197
655 -304 898 -35 79 -147 317 -159 337 -7 11 0 9 89 -29z m-3025 -1873 c7 -1
20 -15 28 -32 21 -40 47 -72 123 -147 l64 -64 -6 -86 c-3 -48 -9 -132 -14
-187 -14 -194 -7 -702 12 -860 8 -66 19 -172 20 -199 l1 -29 -563 -1 c-492 -1
-565 1 -572 14 -10 19 -47 155 -55 200 -3 19 -10 53 -15 75 -60 273 -57 747 5
1045 3 14 10 45 15 70 5 25 11 54 14 66 6 30 34 123 40 132 3 5 843 8 903 3z
m2934 -21 c0 -14 2 -34 4 -45 2 -11 7 -54 10 -95 4 -41 9 -88 11 -105 16 -133
23 -673 10 -835 -2 -30 -4 -65 -5 -77 -1 -16 -7 -23 -21 -23 -36 0 -178 -60
-239 -101 -33 -22 -84 -63 -113 -93 -55 -53 -138 -170 -138 -193 0 -7 -8 -13
-17 -14 -10 0 -375 -2 -811 -2 -696 -2 -793 0 -797 13 -2 8 -7 38 -9 65 -3 28
-8 66 -10 85 -6 39 -15 128 -21 205 -3 28 -7 82 -10 120 -7 79 -7 468 0 560 6
84 16 189 19 192 1 1 17 5 35 8 133 23 321 154 419 290 19 27 41 55 47 60 8 6
297 10 823 10 l812 0 1 -25z m1726 21 c10 -1 43 -87 45 -118 0 -5 4 -18 9 -29
7 -19 39 -189 53 -284 24 -158 25 -567 1 -712 -2 -13 -9 -59 -15 -103 -7 -44
-18 -111 -27 -150 -8 -38 -17 -81 -19 -95 -10 -52 -26 -105 -34 -110 -4 -3
-207 -5 -451 -4 -417 0 -443 1 -453 19 -59 100 -124 178 -200 243 -27 23 -27
25 -22 100 11 143 18 326 18 457 1 132 -10 435 -17 490 -2 17 -6 55 -9 85 -12
117 -17 166 -20 185 -2 11 -2 22 -1 25 3 4 1100 5 1142 1z m-4291 -2324 c61
-235 169 -558 251 -752 55 -127 117 -263 154 -337 21 -43 39 -80 39 -83 0 -19
-312 134 -456 225 -290 182 -589 449 -764 682 -8 11 -27 34 -41 52 -33 40
-147 214 -189 289 l-32 57 503 -2 502 -3 33 -128z m2039 123 c13 0 27 -14 40
-42 35 -74 85 -141 156 -209 38 -37 69 -71 69 -76 0 -14 -103 -278 -150 -383
-133 -302 -407 -781 -454 -796 -27 -9 -273 -8 -371 1 -44 4 -86 12 -93 18 -22
18 -192 311 -274 472 -87 171 -182 389 -240 550 -39 107 -106 314 -113 346 -2
8 -10 38 -18 67 l-16 51 27 3 c21 2 1358 1 1437 -2z m2021 -3 c7 -7 -143 -249
-158 -255 -5 -2 -8 -10 -8 -17 0 -7 -3 -15 -8 -17 -4 -1 -25 -28 -47 -58 -77
-106 -267 -310 -398 -428 -125 -111 -369 -284 -517 -364 -36 -20 -86 -47 -112
-61 -54 -30 -274 -127 -287 -127 -5 0 24 65 64 144 91 182 188 409 255 598
l53 146 43 11 c102 26 221 93 305 173 59 56 98 108 143 190 36 65 39 67 79 70
62 4 588 0 593 -5z"/>
</g>
</svg>
